<svg width="282.22mm" height="282.22mm" version="1.1" viewBox="0 0 282.22 282.22" xml:space="preserve" xmlns="http://www.w3.org/2000/svg" xmlns:xlink="http://www.w3.org/1999/xlink"><defs><clipPath id="create-f"><path d="m180.03 0.011271h-91.349v45.369c-33.651 18.64-56.432 54.511-56.432 95.702 0 60.382 48.952 109.33 109.34 109.33 60.385 0 109.34-48.949 109.34-109.33 0-46.853-29.473-86.823-70.892-102.38z" stroke-width=".35269"/></clipPath><clipPath id="create-e"><circle cx="141.47" cy="141.12" r="109.42" fill="#eb25d2" stroke-width=".35297"/></clipPath><clipPath id="create-d"><circle cx="139.81" cy="138.41" r="107.24" fill="#eb25d2" stroke-width=".34592"/></clipPath><clipPath id="create-c"><path d="m88.828-0.37914h91.397v38.79c41.441 15.598 70.93 55.671 70.93 102.64 0 41.153-22.634 77.009-56.109 95.752v45.683h-32.113l-7.4106-20.154s-2.2938 2.4751-4.2346 3.1823c-1.9409 0.70718-4.0582 0.70718-4.0582 0.70718-0.98807 0.70718-1.8234 0.059-2.1173-0.35359-2.6438 0.66228-6.4762-0.56079-8.5289-1.216-0.68706-0.21959-1.1748-0.37517-1.3519-0.37517-0.56461 0-0.94115-0.58942-1.0586-0.88396-0.98808-0.28287-1.588-1.5321-1.7644-2.1215l0.9909-10.923c-56.511-4.2791-101.03-51.578-101.03-109.3 0-41.297 22.793-77.261 56.462-95.948z" stroke-width=".35324"/></clipPath><clipPath id="create-b"><path d="m155.42-0.19259h-75.417v50.537c-28.927 19.653-47.928 52.822-47.928 90.429 0 60.336 48.912 109.25 109.25 109.25 60.336 0 109.25-48.912 109.25-109.25 0-55.56-41.474-101.43-95.152-108.35z" stroke-width=".35241"/></clipPath><clipPath id="create-a"><circle cx="141.47" cy="141.12" r="109.42" fill="#eb25d2" stroke-width=".35297"/></clipPath></defs><image x=".33891" y=".072528" width="282.22" height="282.22" clip-path="url(#create-a)" preserveAspectRatio="none" xlink:href="file:///Users/acdc/Downloads/decentraland010203/gradient_influence.png"/><image transform="translate(0 .52917)" x=".33891" y=".072528" width="282.22" height="282.22" clip-path="url(#create-b)" preserveAspectRatio="none" xlink:href="file:///Users/acdc/Downloads/decentraland010203/character_influence.png"/><image x="-.0011139" y="-.0011139" width="282.22" height="282.22" preserveAspectRatio="none" xlink:href="file:///Users/acdc/Documents/decentraland_react/Decentraland-Handover-React/public/playground_assets/ring_shadow.png"/><g display="none"><image transform="matrix(1.0204 0 0 1.0204 -1.1926 -.10558)" x="-.0011139" y="-.0011139" width="282.22" height="282.22" clip-path="url(#create-d)" display="inline" preserveAspectRatio="none" xlink:href="file:///Users/acdc/Documents/decentraland_react/Decentraland-Handover-React/public/playground_assets/create_gradient.png"/><image x="-.02335" y="1.0413" width="282.22" height="282.22" clip-path="url(#create-f)" display="inline" preserveAspectRatio="none" xlink:href="file:///Users/acdc/Documents/decentraland_react/Decentraland-Handover-React/public/playground_assets/create_character.png"/></g><g id="create-g" display="none"><image x=".33891" y=".072528" width="282.22" height="282.22" clip-path="url(#create-e)" display="inline" preserveAspectRatio="none" xlink:href="file:///Users/acdc/Downloads/decentraland010203/gradient_sell.png"/><image x=".60158" y="1.1818" width="282.22" height="282.22" clip-path="url(#create-c)" display="inline" preserveAspectRatio="none" xlink:href="file:///Users/acdc/Downloads/decentraland010203/character_sell.png"/></g></svg>
